<svg width="62" height="62" viewBox="0 0 62 62" fill="none" xmlns="http://www.w3.org/2000/svg">
<path fill-rule="evenodd" clip-rule="evenodd" d="M31 0C13.8792 0 0 13.8792 0 31C0 48.1208 13.8792 62 31 62C48.1208 62 62 48.1208 62 31C62 13.8792 48.1208 0 31 0ZM43.9187 20.3431C45.3415 20.7336 46.462 21.8839 46.8423 23.3448C47.5333 25.9925 47.5333 31.5169 47.5333 31.5169C47.5333 31.5169 47.5333 37.0411 46.8423 39.689C46.462 41.1499 45.3415 42.3003 43.9187 42.6909C41.3402 43.4002 30.9999 43.4002 30.9999 43.4002C30.9999 43.4002 20.6597 43.4002 18.081 42.6909C16.6582 42.3003 15.5377 41.1499 15.1574 39.689C14.4666 37.0411 14.4666 31.5169 14.4666 31.5169C14.4666 31.5169 14.4666 25.9925 15.1574 23.3448C15.5377 21.8839 16.6582 20.7336 18.081 20.3431C20.6597 19.6336 30.9999 19.6336 30.9999 19.6336C30.9999 19.6336 41.3402 19.6336 43.9187 20.3431Z" fill="white"/>
<path d="M27.8999 37.1995V26.8662L36.1666 32.0331L27.8999 37.1995Z" fill="white"/>
</svg>
